<?xml version="1.0" encoding="UTF-8" standalone="no"?>
<!DOCTYPE svg PUBLIC "-//W3C//DTD SVG 1.1//EN"
 "http://www.w3.org/Graphics/SVG/1.1/DTD/svg11.dtd">
<!-- Generated by graphviz version 2.38.0 (20140413.2041)
 -->
<!-- Title: G Pages: 1 -->
<svg width="1172pt" height="802pt"
 viewBox="0.00 0.00 1172.49 802.20" xmlns="http://www.w3.org/2000/svg" xmlns:xlink="http://www.w3.org/1999/xlink">
<g id="graph0" class="graph" transform="scale(1 1) rotate(0) translate(599.525 387.699)">
<title>G</title>
<polygon fill="#000000" stroke="none" points="-599.525,414.503 -599.525,-387.699 572.962,-387.699 572.962,414.503 -599.525,414.503"/>
<!-- Ability -->
<g id="node1" class="node"><title>Ability</title>
<ellipse fill="none" stroke="#c6c5fe" cx="-205.927" cy="187.659" rx="35.194" ry="18"/>
<text text-anchor="middle" x="-205.927" y="191.359" font-family="Arial" font-size="14.00" fill="#c6c5fe">Ability</text>
</g>
<!-- DamageCard -->
<g id="node2" class="node"><title>DamageCard</title>
<ellipse fill="none" stroke="#c6c5fe" cx="-371.958" cy="275.362" rx="64.9885" ry="18"/>
<text text-anchor="middle" x="-371.958" y="279.062" font-family="Arial" font-size="14.00" fill="#c6c5fe">DamageCard</text>
</g>
<!-- Ability&#45;&gt;DamageCard -->
<g id="edge1" class="edge"><title>Ability&#45;&gt;DamageCard</title>
<path fill="none" stroke="#757575" d="M-230.426,200.6C-257.354,214.825 -300.997,237.878 -332.708,254.629"/>
<polygon fill="#757575" stroke="#757575" points="-331.246,257.815 -341.723,259.391 -334.515,251.625 -331.246,257.815"/>
</g>
<!-- Pilot -->
<g id="node3" class="node"><title>Pilot</title>
<ellipse fill="none" stroke="#c6c5fe" cx="-96.1769" cy="193.562" rx="28.6953" ry="18"/>
<text text-anchor="middle" x="-96.1769" y="197.262" font-family="Arial" font-size="14.00" fill="#c6c5fe">Pilot</text>
</g>
<!-- Ability&#45;&gt;Pilot -->
<g id="edge2" class="edge"><title>Ability&#45;&gt;Pilot</title>
<path fill="none" stroke="#757575" d="M-170.9,189.543C-159.565,190.153 -146.924,190.833 -135.311,191.457"/>
<polygon fill="#757575" stroke="#757575" points="-134.799,187.98 -125.001,192.012 -135.175,194.969 -134.799,187.98"/>
</g>
<!-- ShipAction -->
<g id="node4" class="node"><title>ShipAction</title>
<ellipse fill="none" stroke="#cfffac" cx="-3.3324" cy="283.861" rx="53.8905" ry="18"/>
<text text-anchor="middle" x="-3.3324" y="287.561" font-family="Arial" font-size="14.00" fill="#cfffac">ShipAction</text>
</g>
<!-- Ability&#45;&gt;ShipAction -->
<g id="edge3" class="edge"><title>Ability&#45;&gt;ShipAction</title>
<path fill="none" stroke="#757575" d="M-179.856,200.039C-145.353,216.423 -84.1741,245.474 -43.6803,264.702"/>
<polygon fill="#757575" stroke="#757575" points="-42.1485,261.555 -34.6165,269.006 -45.1512,267.878 -42.1485,261.555"/>
</g>
<!-- UpgradeCard -->
<g id="node5" class="node"><title>UpgradeCard</title>
<ellipse fill="none" stroke="#c6c5fe" cx="-98.1232" cy="11.7239" rx="65.7887" ry="18"/>
<text text-anchor="middle" x="-98.1232" y="15.4239" font-family="Arial" font-size="14.00" fill="#c6c5fe">UpgradeCard</text>
</g>
<!-- Ability&#45;&gt;UpgradeCard -->
<g id="edge4" class="edge"><title>Ability&#45;&gt;UpgradeCard</title>
<path fill="none" stroke="#757575" d="M-195.394,170.469C-176.492,139.622 -136.703,74.6865 -114.313,38.1463"/>
<polygon fill="#757575" stroke="#757575" points="-117.228,36.2043 -109.019,29.5063 -111.26,39.8616 -117.228,36.2043"/>
</g>
<!-- DamageCardTrait -->
<g id="node9" class="node"><title>DamageCardTrait</title>
<ellipse fill="none" stroke="#cfffac" cx="-508.341" cy="388.511" rx="83.3857" ry="18"/>
<text text-anchor="middle" x="-508.341" y="392.211" font-family="Arial" font-size="14.00" fill="#cfffac">DamageCardTrait</text>
</g>
<!-- DamageCard&#45;&gt;DamageCardTrait -->
<g id="edge5" class="edge"><title>DamageCard&#45;&gt;DamageCardTrait</title>
<path fill="none" stroke="#757575" d="M-392.672,292.547C-415.668,311.625 -452.964,342.568 -478.968,364.142"/>
<polygon fill="#757575" stroke="#757575" points="-477.051,367.099 -486.982,370.791 -481.52,361.712 -477.051,367.099"/>
</g>
<!-- ShipTeam -->
<g id="node23" class="node"><title>ShipTeam</title>
<ellipse fill="none" stroke="#c6c5fe" cx="115.184" cy="308.119" rx="51.9908" ry="18"/>
<text text-anchor="middle" x="115.184" y="311.819" font-family="Arial" font-size="14.00" fill="#c6c5fe">ShipTeam</text>
</g>
<!-- Pilot&#45;&gt;ShipTeam -->
<g id="edge16" class="edge"><title>Pilot&#45;&gt;ShipTeam</title>
<path fill="none" stroke="#757575" d="M-74.3537,205.39C-38.314,224.923 34.0395,264.139 78.1854,288.066"/>
<polygon fill="#757575" stroke="#757575" points="80.0303,285.084 87.1543,292.927 76.6948,291.239 80.0303,285.084"/>
</g>
<!-- Team -->
<g id="node24" class="node"><title>Team</title>
<ellipse fill="none" stroke="#cfffac" cx="-16.002" cy="363.851" rx="33.5952" ry="18"/>
<text text-anchor="middle" x="-16.002" y="367.551" font-family="Arial" font-size="14.00" fill="#cfffac">Team</text>
</g>
<!-- Pilot&#45;&gt;Team -->
<g id="edge17" class="edge"><title>Pilot&#45;&gt;Team</title>
<path fill="none" stroke="#757575" d="M-88.0481,210.827C-74.0383,240.584 -45.2509,301.727 -28.6187,337.054"/>
<polygon fill="#757575" stroke="#757575" points="-25.3654,335.747 -24.2723,346.285 -31.6986,338.729 -25.3654,335.747"/>
</g>
<!-- UpgradeType -->
<g id="node25" class="node"><title>UpgradeType</title>
<ellipse fill="none" stroke="#cfffac" cx="-252.978" cy="37.3396" rx="65.7887" ry="18"/>
<text text-anchor="middle" x="-252.978" y="41.0396" font-family="Arial" font-size="14.00" fill="#cfffac">UpgradeType</text>
</g>
<!-- Pilot&#45;&gt;UpgradeType -->
<g id="edge18" class="edge"><title>Pilot&#45;&gt;UpgradeType</title>
<path fill="none" stroke="#757575" d="M-111.497,178.298C-138.607,151.288 -195.257,94.8476 -228.054,62.1717"/>
<polygon fill="#757575" stroke="#757575" points="-230.84,64.336 -235.454,54.7985 -225.9,59.3771 -230.84,64.336"/>
</g>
<!-- UpgradeCard&#45;&gt;Pilot -->
<g id="edge30" class="edge"><title>UpgradeCard&#45;&gt;Pilot</title>
<path fill="none" stroke="#757575" d="M-97.9295,29.8241C-97.5899,61.5472 -96.885,127.404 -96.4803,165.217"/>
<polygon fill="#757575" stroke="#757575" points="-92.9772,165.498 -96.3698,175.535 -99.9768,165.573 -92.9772,165.498"/>
</g>
<!-- FiringArc -->
<g id="node13" class="node"><title>FiringArc</title>
<ellipse fill="none" stroke="#cfffac" cx="24.9817" cy="15.1646" rx="47.3916" ry="18"/>
<text text-anchor="middle" x="24.9817" y="18.8646" font-family="Arial" font-size="14.00" fill="#cfffac">FiringArc</text>
</g>
<!-- UpgradeCard&#45;&gt;FiringArc -->
<g id="edge29" class="edge"><title>UpgradeCard&#45;&gt;FiringArc</title>
<path fill="none" stroke="#757575" d="M-32.6059,13.5551C-32.4983,13.5581 -32.3906,13.5611 -32.283,13.5641"/>
<polygon fill="#757575" stroke="#757575" points="-32.2618,10.0632 -22.3635,13.8413 -32.4574,17.0605 -32.2618,10.0632"/>
</g>
<!-- UpgradeCard&#45;&gt;UpgradeType -->
<g id="edge34" class="edge"><title>UpgradeCard&#45;&gt;UpgradeType</title>
<path fill="none" stroke="#757575" d="M-154.467,21.0443C-164.887,22.7679 -175.859,24.5828 -186.545,26.3505"/>
<polygon fill="#757575" stroke="#757575" points="-186.238,29.8473 -196.676,28.0263 -187.381,22.9411 -186.238,29.8473"/>
</g>
<!-- RangeRuler -->
<g id="node26" class="node"><title>RangeRuler</title>
<ellipse fill="none" stroke="#c6c5fe" cx="100.272" cy="-63.5024" rx="59.2899" ry="18"/>
<text text-anchor="middle" x="100.272" y="-59.8024" font-family="Arial" font-size="14.00" fill="#c6c5fe">RangeRuler</text>
</g>
<!-- UpgradeCard&#45;&gt;RangeRuler -->
<g id="edge31" class="edge"><title>UpgradeCard&#45;&gt;RangeRuler</title>
<path fill="none" stroke="#757575" d="M-59.3996,-2.95903C-27.0337,-15.2313 19.2213,-32.7701 53.6228,-45.8142"/>
<polygon fill="#757575" stroke="#757575" points="52.3987,-49.0932 62.9901,-49.366 54.8806,-42.5479 52.3987,-49.0932"/>
</g>
<!-- UpgradeHeader -->
<g id="node29" class="node"><title>UpgradeHeader</title>
<ellipse fill="none" stroke="#cfffac" cx="-158.32" cy="-168.722" rx="75.2868" ry="18"/>
<text text-anchor="middle" x="-158.32" y="-165.022" font-family="Arial" font-size="14.00" fill="#cfffac">UpgradeHeader</text>
</g>
<!-- UpgradeCard&#45;&gt;UpgradeHeader -->
<g id="edge32" class="edge"><title>UpgradeCard&#45;&gt;UpgradeHeader</title>
<path fill="none" stroke="#757575" d="M-104.115,-6.23757C-114.635,-37.7715 -136.493,-103.293 -149,-140.785"/>
<polygon fill="#757575" stroke="#757575" points="-152.418,-139.971 -152.263,-150.565 -145.778,-142.187 -152.418,-139.971"/>
</g>
<!-- UpgradeRestriction -->
<g id="node30" class="node"><title>UpgradeRestriction</title>
<ellipse fill="none" stroke="#c6c5fe" cx="46.1218" cy="149.801" rx="88.2844" ry="18"/>
<text text-anchor="middle" x="46.1218" y="153.501" font-family="Arial" font-size="14.00" fill="#c6c5fe">UpgradeRestriction</text>
</g>
<!-- UpgradeCard&#45;&gt;UpgradeRestriction -->
<g id="edge33" class="edge"><title>UpgradeCard&#45;&gt;UpgradeRestriction</title>
<path fill="none" stroke="#757575" d="M-79.8545,29.2115C-54.5235,53.4593 -8.6008,97.4184 20.2478,125.033"/>
<polygon fill="#757575" stroke="#757575" points="22.7422,122.576 27.5458,132.019 17.9017,127.633 22.7422,122.576"/>
</g>
<!-- Bearing -->
<g id="node6" class="node"><title>Bearing</title>
<ellipse fill="none" stroke="#cfffac" cx="427.592" cy="-84.17" rx="42.4939" ry="18"/>
<text text-anchor="middle" x="427.592" y="-80.47" font-family="Arial" font-size="14.00" fill="#cfffac">Bearing</text>
</g>
<!-- ConditionCard -->
<g id="node7" class="node"><title>ConditionCard</title>
<ellipse fill="none" stroke="#cfffac" cx="365" cy="130" rx="68.7879" ry="18"/>
<text text-anchor="middle" x="365" y="133.7" font-family="Arial" font-size="14.00" fill="#cfffac">ConditionCard</text>
</g>
<!-- Count -->
<g id="node8" class="node"><title>Count</title>
<ellipse fill="none" stroke="#cfffac" cx="-224" cy="278" rx="35.194" ry="18"/>
<text text-anchor="middle" x="-224" y="281.7" font-family="Arial" font-size="14.00" fill="#cfffac">Count</text>
</g>
<!-- DiceModification -->
<g id="node10" class="node"><title>DiceModification</title>
<ellipse fill="none" stroke="#cfffac" cx="-71" cy="-277" rx="77.1866" ry="18"/>
<text text-anchor="middle" x="-71" y="-273.3" font-family="Arial" font-size="14.00" fill="#cfffac">DiceModification</text>
</g>
<!-- Difficulty -->
<g id="node11" class="node"><title>Difficulty</title>
<ellipse fill="none" stroke="#cfffac" cx="520.124" cy="146.223" rx="44.6926" ry="18"/>
<text text-anchor="middle" x="520.124" y="149.923" font-family="Arial" font-size="14.00" fill="#cfffac">Difficulty</text>
</g>
<!-- Event -->
<g id="node12" class="node"><title>Event</title>
<ellipse fill="none" stroke="#cfffac" cx="108" cy="-351" rx="33.5952" ry="18"/>
<text text-anchor="middle" x="108" y="-347.3" font-family="Arial" font-size="14.00" fill="#cfffac">Event</text>
</g>
<!-- InitialState -->
<g id="node14" class="node"><title>InitialState</title>
<ellipse fill="none" stroke="#c6c5fe" cx="275.149" cy="226.701" rx="53.0913" ry="18"/>
<text text-anchor="middle" x="275.149" y="230.401" font-family="Arial" font-size="14.00" fill="#c6c5fe">InitialState</text>
</g>
<!-- Phase -->
<g id="node15" class="node"><title>Phase</title>
<ellipse fill="none" stroke="#cfffac" cx="372.851" cy="241.299" rx="36.2938" ry="18"/>
<text text-anchor="middle" x="372.851" y="244.999" font-family="Arial" font-size="14.00" fill="#cfffac">Phase</text>
</g>
<!-- InitialState&#45;&gt;Phase -->
<g id="edge6" class="edge"><title>InitialState&#45;&gt;Phase</title>
<path fill="none" stroke="#757575" d="M324,234C325.315,234.196 326.63,234.393 327.941,234.589"/>
<polygon fill="#757575" stroke="#757575" points="328.481,231.131 337.854,236.07 327.447,238.054 328.481,231.131"/>
</g>
<!-- Maneuver -->
<g id="node16" class="node"><title>Maneuver</title>
<ellipse fill="none" stroke="#c6c5fe" cx="348.682" cy="46.2736" rx="51.1914" ry="18"/>
<text text-anchor="middle" x="348.682" y="49.9736" font-family="Arial" font-size="14.00" fill="#c6c5fe">Maneuver</text>
</g>
<!-- Maneuver&#45;&gt;Bearing -->
<g id="edge7" class="edge"><title>Maneuver&#45;&gt;Bearing</title>
<path fill="none" stroke="#757575" d="M359.489,28.4095C372.947,6.16187 396.054,-32.0358 411.573,-57.6903"/>
<polygon fill="#757575" stroke="#757575" points="408.745,-59.777 416.916,-66.5216 414.734,-56.1538 408.745,-59.777"/>
</g>
<!-- Maneuver&#45;&gt;Difficulty -->
<g id="edge8" class="edge"><title>Maneuver&#45;&gt;Difficulty</title>
<path fill="none" stroke="#757575" d="M375.47,61.8907C405.254,79.255 453.437,107.345 485.924,126.285"/>
<polygon fill="#757575" stroke="#757575" points="487.766,123.307 494.642,131.368 484.24,129.355 487.766,123.307"/>
</g>
<!-- ManeuverComputer -->
<g id="node17" class="node"><title>ManeuverComputer</title>
<ellipse fill="none" stroke="#c6c5fe" cx="247.363" cy="-147.707" rx="90.9839" ry="18"/>
<text text-anchor="middle" x="247.363" y="-144.007" font-family="Arial" font-size="14.00" fill="#c6c5fe">ManeuverComputer</text>
</g>
<!-- ManeuverComputer&#45;&gt;Bearing -->
<g id="edge9" class="edge"><title>ManeuverComputer&#45;&gt;Bearing</title>
<path fill="none" stroke="#757575" d="M291.914,-132.001C320.447,-121.942 357.251,-108.968 385.327,-99.07"/>
<polygon fill="#757575" stroke="#757575" points="386.598,-102.333 394.866,-95.7072 384.271,-95.7312 386.598,-102.333"/>
</g>
<!-- ManeuverComputer&#45;&gt;Maneuver -->
<g id="edge10" class="edge"><title>ManeuverComputer&#45;&gt;Maneuver</title>
<path fill="none" stroke="#757575" d="M256.895,-129.458C274.864,-95.0562 313.815,-20.4807 334.733,19.5673"/>
<polygon fill="#757575" stroke="#757575" points="337.869,18.0108 339.396,28.4949 331.664,21.2516 337.869,18.0108"/>
</g>
<!-- Path -->
<g id="node18" class="node"><title>Path</title>
<ellipse fill="none" stroke="#cfffac" cx="223.688" cy="-361.707" rx="29.4969" ry="18"/>
<text text-anchor="middle" x="223.688" y="-358.007" font-family="Arial" font-size="14.00" fill="#cfffac">Path</text>
</g>
<!-- ManeuverComputer&#45;&gt;Path -->
<g id="edge11" class="edge"><title>ManeuverComputer&#45;&gt;Path</title>
<path fill="none" stroke="#757575" d="M245.345,-165.953C241.213,-203.304 231.764,-288.709 226.826,-333.347"/>
<polygon fill="#757575" stroke="#757575" points="223.323,-333.183 225.702,-343.508 230.28,-333.953 223.323,-333.183"/>
</g>
<!-- PlayFormat -->
<g id="node19" class="node"><title>PlayFormat</title>
<ellipse fill="none" stroke="#cfffac" cx="424.535" cy="-232.378" rx="57.3905" ry="18"/>
<text text-anchor="middle" x="424.535" y="-228.678" font-family="Arial" font-size="14.00" fill="#cfffac">PlayFormat</text>
</g>
<!-- ManeuverComputer&#45;&gt;PlayFormat -->
<g id="edge12" class="edge"><title>ManeuverComputer&#45;&gt;PlayFormat</title>
<path fill="none" stroke="#757575" d="M282.367,-164.436C311.521,-178.368 353.077,-198.228 383.735,-212.88"/>
<polygon fill="#757575" stroke="#757575" points="382.343,-216.094 392.874,-217.248 385.361,-209.778 382.343,-216.094"/>
</g>
<!-- Position -->
<g id="node20" class="node"><title>Position</title>
<ellipse fill="none" stroke="#cfffac" cx="121.494" cy="-248.388" rx="42.7926" ry="18"/>
<text text-anchor="middle" x="121.494" y="-244.688" font-family="Arial" font-size="14.00" fill="#cfffac">Position</text>
</g>
<!-- ManeuverComputer&#45;&gt;Position -->
<g id="edge13" class="edge"><title>ManeuverComputer&#45;&gt;Position</title>
<path fill="none" stroke="#757575" d="M225.439,-165.245C204.361,-182.104 172.414,-207.658 149.503,-225.984"/>
<polygon fill="#757575" stroke="#757575" points="147.131,-223.399 141.508,-232.379 151.504,-228.866 147.131,-223.399"/>
</g>
<!-- RectanglePath -->
<g id="node21" class="node"><title>RectanglePath</title>
<ellipse fill="none" stroke="#c6c5fe" cx="334.925" cy="-320.937" rx="70.3881" ry="18"/>
<text text-anchor="middle" x="334.925" y="-317.237" font-family="Arial" font-size="14.00" fill="#c6c5fe">RectanglePath</text>
</g>
<!-- ManeuverComputer&#45;&gt;RectanglePath -->
<g id="edge14" class="edge"><title>ManeuverComputer&#45;&gt;RectanglePath</title>
<path fill="none" stroke="#757575" d="M256.568,-165.919C271.98,-196.409 303.087,-257.949 321.126,-293.637"/>
<polygon fill="#757575" stroke="#757575" points="318.208,-295.624 325.843,-302.97 324.456,-292.467 318.208,-295.624"/>
</g>
<!-- ShipBase -->
<g id="node22" class="node"><title>ShipBase</title>
<ellipse fill="none" stroke="#cfffac" cx="222.595" cy="35.2845" rx="49.2915" ry="18"/>
<text text-anchor="middle" x="222.595" y="38.9845" font-family="Arial" font-size="14.00" fill="#cfffac">ShipBase</text>
</g>
<!-- ManeuverComputer&#45;&gt;ShipBase -->
<g id="edge15" class="edge"><title>ManeuverComputer&#45;&gt;ShipBase</title>
<path fill="none" stroke="#757575" d="M244.898,-129.492C240.577,-97.5679 231.607,-31.2934 226.456,6.75952"/>
<polygon fill="#757575" stroke="#757575" points="229.86,7.70307 225.051,17.1432 222.924,6.76412 229.86,7.70307"/>
</g>
<!-- RectanglePath&#45;&gt;Path -->
<g id="edge21" class="edge"><title>RectanglePath&#45;&gt;Path</title>
<path fill="none" stroke="#757575" d="M294.451,-335.771C282.728,-340.068 270.033,-344.721 258.676,-348.884"/>
<polygon fill="#757575" stroke="#757575" points="257.282,-345.667 249.097,-352.394 259.691,-352.239 257.282,-345.667"/>
</g>
<!-- ShipTeam&#45;&gt;Team -->
<g id="edge28" class="edge"><title>ShipTeam&#45;&gt;Team</title>
<path fill="none" stroke="#757575" d="M82.0801,322.182C63.1196,330.237 39.3135,340.351 19.9033,348.597"/>
<polygon fill="#757575" stroke="#757575" points="21.0586,351.909 10.4862,352.598 18.3214,345.466 21.0586,351.909"/>
</g>
<!-- Ship -->
<g id="node27" class="node"><title>Ship</title>
<ellipse fill="none" stroke="#c6c5fe" cx="171.774" cy="145.926" rx="29.4969" ry="18"/>
<text text-anchor="middle" x="171.774" y="149.626" font-family="Arial" font-size="14.00" fill="#c6c5fe">Ship</text>
</g>
<!-- ShipTeam&#45;&gt;Ship -->
<g id="edge27" class="edge"><title>ShipTeam&#45;&gt;Ship</title>
<path fill="none" stroke="#757575" d="M121.456,290.141C131.314,261.888 150.506,206.883 162.128,173.572"/>
<polygon fill="#757575" stroke="#757575" points="158.874,172.273 165.474,163.984 165.484,174.579 158.874,172.273"/>
</g>
<!-- RangeRuler&#45;&gt;ManeuverComputer -->
<g id="edge19" class="edge"><title>RangeRuler&#45;&gt;ManeuverComputer</title>
<path fill="none" stroke="#757575" d="M128.285,-79.5389C151.002,-92.5434 183.273,-111.018 208.491,-125.454"/>
<polygon fill="#757575" stroke="#757575" points="207.015,-128.642 217.432,-130.573 210.493,-122.567 207.015,-128.642"/>
</g>
<!-- RangeRuler&#45;&gt;Position -->
<g id="edge20" class="edge"><title>RangeRuler&#45;&gt;Position</title>
<path fill="none" stroke="#757575" d="M102.346,-81.5666C106.054,-113.875 113.847,-181.765 118.263,-220.234"/>
<polygon fill="#757575" stroke="#757575" points="114.795,-220.715 119.412,-230.25 121.749,-219.916 114.795,-220.715"/>
</g>
<!-- Ship&#45;&gt;ShipAction -->
<g id="edge25" class="edge"><title>Ship&#45;&gt;ShipAction</title>
<path fill="none" stroke="#757575" d="M153.694,160.168C123.52,183.937 62.6195,231.91 26.1649,260.626"/>
<polygon fill="#757575" stroke="#757575" points="27.9185,263.7 17.8971,267.138 23.5869,258.201 27.9185,263.7"/>
</g>
<!-- Ship&#45;&gt;FiringArc -->
<g id="edge22" class="edge"><title>Ship&#45;&gt;FiringArc</title>
<path fill="none" stroke="#757575" d="M154.935,130.926C129.633,108.388 81.5794,65.5815 51.5284,38.8123"/>
<polygon fill="#757575" stroke="#757575" points="49.0716,41.311 43.9326,32.0459 53.7277,36.0841 49.0716,41.311"/>
</g>
<!-- Ship&#45;&gt;Maneuver -->
<g id="edge23" class="edge"><title>Ship&#45;&gt;Maneuver</title>
<path fill="none" stroke="#757575" d="M193.466,133.707C223.025,117.056 276.365,87.0102 312.151,66.8516"/>
<polygon fill="#757575" stroke="#757575" points="310.864,63.5593 321.295,61.7009 314.3,69.6583 310.864,63.5593"/>
</g>
<!-- Ship&#45;&gt;ShipBase -->
<g id="edge26" class="edge"><title>Ship&#45;&gt;ShipBase</title>
<path fill="none" stroke="#757575" d="M179.939,128.15C188.078,110.431 200.686,82.9832 210.087,62.5167"/>
<polygon fill="#757575" stroke="#757575" points="206.927,61.0108 214.281,53.3845 213.288,63.9327 206.927,61.0108"/>
</g>
<!-- Ship&#45;&gt;RangeRuler -->
<g id="edge24" class="edge"><title>Ship&#45;&gt;RangeRuler</title>
<path fill="none" stroke="#757575" d="M165.678,128.071C153.203,91.5317 124.684,8.00123 109.765,-35.6973"/>
<polygon fill="#757575" stroke="#757575" points="106.373,-34.7998 106.454,-45.3944 112.998,-37.0616 106.373,-34.7998"/>
</g>
<!-- ShipState -->
<g id="node28" class="node"><title>ShipState</title>
<ellipse fill="none" stroke="#cfffac" cx="-246" cy="-314" rx="50.0912" ry="18"/>
<text text-anchor="middle" x="-246" y="-310.3" font-family="Arial" font-size="14.00" fill="#cfffac">ShipState</text>
</g>
<!-- UpgradeRestriction&#45;&gt;Pilot -->
<g id="edge35" class="edge"><title>UpgradeRestriction&#45;&gt;Pilot</title>
<path fill="none" stroke="#757575" d="M-2.84932,164.861C-21.801,170.689 -43.0854,177.235 -60.5369,182.602"/>
<polygon fill="#757575" stroke="#757575" points="-59.7355,186.017 -70.3226,185.611 -61.7932,179.326 -59.7355,186.017"/>
</g>
<!-- UpgradeRestriction&#45;&gt;ShipBase -->
<g id="edge37" class="edge"><title>UpgradeRestriction&#45;&gt;ShipBase</title>
<path fill="none" stroke="#757575" d="M72.9243,132.408C104.258,112.076 156.109,78.4285 189.811,56.5585"/>
<polygon fill="#757575" stroke="#757575" points="188.09,53.503 198.384,50.9955 191.901,59.3751 188.09,53.503"/>
</g>
<!-- UpgradeRestriction&#45;&gt;Team -->
<g id="edge38" class="edge"><title>UpgradeRestriction&#45;&gt;Team</title>
<path fill="none" stroke="#757575" d="M40.8252,168.051C29.9322,205.583 4.95969,291.627 -7.94811,336.101"/>
<polygon fill="#757575" stroke="#757575" points="-4.65778,337.321 -10.8064,345.949 -11.3804,335.37 -4.65778,337.321"/>
</g>
<!-- UpgradeRestriction&#45;&gt;Ship -->
<g id="edge36" class="edge"><title>UpgradeRestriction&#45;&gt;Ship</title>
<path fill="none" stroke="#757575" d="M133.733,147.099C133.827,147.096 133.92,147.094 134.013,147.091"/>
<polygon fill="#757575" stroke="#757575" points="132.305,143.642 142.408,146.832 132.521,150.639 132.305,143.642"/>
</g>
<!-- Value -->
<g id="node31" class="node"><title>Value</title>
<ellipse fill="none" stroke="#cfffac" cx="-262" cy="-55" rx="33.5952" ry="18"/>
<text text-anchor="middle" x="-262" y="-51.3" font-family="Arial" font-size="14.00" fill="#cfffac">Value</text>
</g>
<!-- Weapon -->
<g id="node32" class="node"><title>Weapon</title>
<ellipse fill="none" stroke="#c6c5fe" cx="13.8262" cy="-145.151" rx="44.6926" ry="18"/>
<text text-anchor="middle" x="13.8262" y="-141.451" font-family="Arial" font-size="14.00" fill="#c6c5fe">Weapon</text>
</g>
<!-- Weapon&#45;&gt;UpgradeCard -->
<g id="edge42" class="edge"><title>Weapon&#45;&gt;UpgradeCard</title>
<path fill="none" stroke="#757575" d="M1.41796,-127.763C-18.1477,-100.346 -56.2987,-46.8846 -79.2675,-14.6984"/>
<polygon fill="#757575" stroke="#757575" points="-76.6574,-12.3306 -85.3153,-6.22378 -82.3554,-16.3968 -76.6574,-12.3306"/>
</g>
<!-- Weapon&#45;&gt;FiringArc -->
<g id="edge39" class="edge"><title>Weapon&#45;&gt;FiringArc</title>
<path fill="none" stroke="#757575" d="M15.0842,-127.072C17.0091,-99.4094 20.7026,-46.331 22.9929,-13.4171"/>
<polygon fill="#757575" stroke="#757575" points="26.5085,-13.3128 23.7112,-3.09389 19.5254,-12.8268 26.5085,-13.3128"/>
</g>
<!-- Weapon&#45;&gt;ManeuverComputer -->
<g id="edge40" class="edge"><title>Weapon&#45;&gt;ManeuverComputer</title>
<path fill="none" stroke="#757575" d="M58.8545,-145.644C83.6239,-145.915 115.425,-146.263 145.825,-146.596"/>
<polygon fill="#757575" stroke="#757575" points="146.031,-150.098 156.068,-146.708 146.107,-143.098 146.031,-150.098"/>
</g>
<!-- Weapon&#45;&gt;RangeRuler -->
<g id="edge41" class="edge"><title>Weapon&#45;&gt;RangeRuler</title>
<path fill="none" stroke="#757575" d="M31.7379,-128.233C44.1725,-116.489 60.9224,-100.668 74.7504,-87.6077"/>
<polygon fill="#757575" stroke="#757575" points="77.2193,-90.0902 82.086,-80.6792 72.4128,-85.0012 77.2193,-90.0902"/>
</g>
<!-- Weapon&#45;&gt;UpgradeHeader -->
<g id="edge43" class="edge"><title>Weapon&#45;&gt;UpgradeHeader</title>
<path fill="none" stroke="#757575" d="M-28.7267,-150.977C-45.0997,-153.219 -64.3238,-155.851 -82.8786,-158.392"/>
<polygon fill="#757575" stroke="#757575" points="-83.3647,-154.926 -92.7975,-159.75 -82.4151,-161.861 -83.3647,-154.926"/>
</g>
</g>
</svg>
