solid exported
	facet normal 0 0.7071067811865476 0.7071067811865476
		outer loop
			vertex 0 0 0
			vertex 3 0 0
			vertex 3 3 -3
		endloop
	endfacet
	facet normal 0.7071067811865476 0 0.7071067811865476
		outer loop
			vertex 0 0 0
			vertex 3 3 -3
			vertex 0 3 0
		endloop
	endfacet
	facet normal 0 -0.7071067811865476 0.7071067811865476
		outer loop
			vertex 0 0 0
			vertex 3 -3 -3
			vertex 3 0 0
		endloop
	endfacet
	facet normal -0.7071067811865476 -0.7071067811865476 0
		outer loop
			vertex 0 0 0
			vertex 0 0 -3
			vertex 3 -3 -3
		endloop
	endfacet
	facet normal 0.7071067811865476 -0.7071067811865476 0
		outer loop
			vertex 0 0 0
			vertex -3 -3 -3
			vertex 0 0 -3
		endloop
	endfacet
	facet normal -0.7071067811865476 0 0.7071067811865476
		outer loop
			vertex 0 0 0
			vertex -3 3 -3
			vertex -3 -3 -3
		endloop
	endfacet
	facet normal 0 0.7071067811865476 0.7071067811865476
		outer loop
			vertex 0 0 0
			vertex 0 3 -3
			vertex -3 3 -3
		endloop
	endfacet
	facet normal -1 0 0
		outer loop
			vertex 0 0 0
			vertex 0 3 0
			vertex 0 3 -3
		endloop
	endfacet
	facet normal 0 1 0
		outer loop
			vertex 0 3 0
			vertex 3 3 -3
			vertex 0 3 -3
		endloop
	endfacet
	facet normal 1 0 0
		outer loop
			vertex 3 0 0
			vertex 3 -3 -3
			vertex 3 3 -3
		endloop
	endfacet
	facet normal 0 0 -1
		outer loop
			vertex -3 3 -3
			vertex 3 3 -3
			vertex -3 -3 -3
		endloop
	endfacet
	facet normal 0 0 -1
		outer loop
			vertex 0 0 -3
			vertex 3 3 -3
			vertex 3 -3 -3
		endloop
	endfacet
endsolid exported
